<?xml version="1.0" standalone="no"?>
<!DOCTYPE svg PUBLIC "-//W3C//DTD SVG 20010904//EN"
 "http://www.w3.org/TR/2001/REC-SVG-20010904/DTD/svg10.dtd">
<svg version="1.0" xmlns="http://www.w3.org/2000/svg"
 width="242.000000pt" height="421.000000pt" viewBox="0 0 242.000000 421.000000"
 preserveAspectRatio="xMidYMid meet">

<g transform="translate(0.000000,421.000000) scale(0.100000,-0.100000)"
fill="#000000" stroke="none">
<path d="M1296 3971 c-21 -23 -42 -100 -56 -206 -6 -44 -13 -89 -15 -100 -5
-24 -188 -190 -266 -241 -119 -78 -149 -127 -160 -260 -6 -73 -14 -103 -33
-137 -20 -34 -26 -57 -26 -104 l0 -60 -98 -20 c-97 -21 -298 -99 -433 -169
-75 -40 -134 -96 -145 -138 l-7 -29 65 7 c74 7 170 -8 335 -55 116 -33 291
-111 299 -134 3 -8 -4 -43 -17 -77 -21 -59 -23 -85 -30 -408 -4 -190 -11 -469
-14 -620 -7 -256 -3 -316 19 -371 5 -11 -3 -29 -23 -51 -72 -83 -126 -246 -85
-262 29 -11 109 -6 176 11 37 9 69 15 72 12 3 -3 -4 -31 -16 -63 -16 -43 -33
-68 -70 -98 -85 -72 -61 -93 119 -103 107 -6 115 -5 155 18 24 14 48 23 55 20
7 -2 21 1 32 7 17 9 21 20 21 64 0 35 5 58 15 66 16 13 19 52 6 84 -5 13 -1
30 13 52 18 27 29 33 76 39 30 4 97 15 149 26 121 25 121 25 121 -10 0 -17 16
-52 39 -86 22 -32 45 -79 51 -104 l11 -46 181 -3 c191 -2 251 6 268 38 13 24
13 101 0 135 l-10 26 -32 -24 c-54 -40 -55 -39 -82 8 -16 26 -43 54 -66 67
-43 25 -49 38 -25 58 8 7 15 29 15 49 0 32 5 39 33 53 57 27 137 97 137 119 0
40 -91 367 -119 431 -16 34 -40 96 -55 136 -22 62 -23 72 -10 72 23 0 60 -44
109 -130 23 -41 54 -81 68 -89 22 -13 28 -13 51 2 25 17 26 22 26 103 0 58 -5
95 -16 115 -19 38 -14 54 23 64 82 20 65 85 -23 85 -13 0 -41 9 -61 20 -21 11
-54 20 -74 20 -29 0 -38 5 -47 25 -7 14 -34 40 -62 57 -41 25 -50 36 -50 59 0
23 -12 36 -74 79 -68 47 -106 93 -106 129 0 31 -28 62 -74 84 -29 14 -67 42
-86 63 l-34 39 72 6 c115 11 168 54 183 149 9 58 50 120 78 120 10 0 34 -18
54 -40 56 -63 61 -57 53 76 l-8 117 38 38 c33 34 36 41 26 63 -16 35 3 46 83
51 123 7 161 55 114 147 -56 110 -274 414 -440 613 -220 263 -348 366 -393
316z m100 -39 c83 -60 284 -290 459 -523 307 -410 330 -469 192 -494 -56 -11
-86 8 -139 83 -47 67 -490 513 -600 605 -54 45 -58 51 -58 92 0 56 24 181 44
228 19 46 47 48 102 9z m-72 -369 c117 -97 535 -518 580 -585 33 -48 37 -60
26 -73 -20 -24 -30 -18 -30 17 0 42 -25 68 -67 68 -32 0 -33 2 -33 38 0 51
-27 76 -72 69 -28 -4 -43 3 -103 51 -106 83 -144 123 -165 169 -44 100 -180
94 -180 -8 0 -16 -5 -29 -12 -29 -16 0 -238 149 -238 160 0 9 195 190 206 190
3 0 43 -30 88 -67z m-260 -174 c23 -17 90 -62 149 -100 91 -58 111 -76 127
-112 20 -43 28 -157 11 -157 -4 0 -20 18 -35 40 -14 22 -39 46 -56 55 -30 16
-40 9 -18 -13 19 -19 4 -24 -86 -32 -46 -5 -93 -13 -104 -19 -33 -18 -67 -13
-91 13 -27 29 -65 38 -115 26 l-39 -8 5 61 c9 106 26 146 93 215 72 73 97 78
159 31z m360 -50 c45 -53 30 -113 -31 -125 -28 -6 -37 -2 -68 29 -40 40 -45
77 -15 107 31 31 83 27 114 -11z m12 -196 c140 -105 384 -337 384 -366 0 -13
-14 -1 -201 174 -140 132 -191 170 -205 156 -8 -8 17 -129 33 -162 30 -58 86
-116 184 -191 54 -41 99 -77 99 -81 0 -3 -9 1 -19 8 -11 8 -76 53 -145 101
-135 95 -160 122 -175 189 -16 72 -25 209 -14 209 6 0 32 -17 59 -37z m-508
-77 c15 -8 35 -23 46 -35 17 -19 21 -19 52 -6 19 8 71 19 116 25 46 6 95 13
110 15 29 5 68 -24 103 -78 17 -27 17 -27 -8 -27 -14 0 -29 -4 -32 -10 -4 -6
6 -10 23 -10 22 0 38 -11 69 -48 40 -47 66 -67 247 -194 48 -34 91 -68 93 -76
3 -7 -8 -28 -25 -45 -36 -37 -52 -75 -52 -121 0 -26 -9 -41 -39 -69 -52 -47
-82 -52 -286 -52 -210 0 -238 9 -319 96 -99 106 -184 313 -142 344 24 18 20
25 -19 25 -24 0 -44 9 -66 28 -27 24 -33 37 -37 85 -5 64 9 110 42 133 19 13
23 12 52 -23 18 -21 36 -35 40 -30 4 4 -2 17 -14 30 -45 47 -15 75 46 43z
m848 -11 c9 -35 2 -39 -29 -14 -34 26 -34 39 -2 39 18 0 26 -7 31 -25z m102
-114 c4 -29 -15 -25 -36 8 -15 22 -15 23 9 19 16 -2 25 -10 27 -27z m-1113
-110 c0 -9 -19 -19 -52 -26 -28 -7 -63 -19 -76 -28 -43 -28 -96 -90 -127 -149
-29 -55 -33 -58 -68 -58 -20 0 -108 -10 -194 -22 -87 -12 -161 -19 -164 -15
-12 11 45 76 91 103 24 14 94 48 155 75 263 116 435 163 435 120z m54 -44 c35
-17 78 -176 60 -219 -20 -48 -40 -52 -137 -29 -48 11 -120 23 -159 27 -93 8
-95 24 -16 121 74 92 183 136 252 100z m-87 -262 c77 -20 234 -96 227 -110 -7
-15 -46 -6 -133 33 -91 39 -183 51 -274 34 -43 -8 -72 -5 -165 15 -61 13 -119
26 -127 30 -70 28 363 27 472 -2z m-20 -60 c72 -15 158 -49 158 -62 0 -4 -23
-20 -50 -35 l-50 -28 -47 29 c-27 16 -76 42 -110 57 -67 28 -77 40 -40 47 42
8 72 7 139 -8z m387 -119 c68 -46 95 -71 124 -118 23 -37 22 -42 -17 -63 -30
-16 -38 -17 -59 -6 -13 7 -35 11 -48 9 -19 -2 -25 -10 -27 -36 -4 -40 17 -76
61 -102 45 -28 55 -25 67 20 11 41 47 67 76 56 15 -6 94 -161 94 -185 0 -9
-18 -26 -40 -39 -36 -20 -43 -21 -86 -10 -42 12 -47 11 -60 -7 -19 -26 -18
-51 7 -102 32 -67 88 -72 114 -10 17 41 44 66 75 69 23 3 26 -3 56 -123 67
-265 79 -464 36 -562 -46 -104 -211 -224 -322 -235 -28 -2 -71 1 -96 8 -42 12
-45 15 -39 39 13 50 25 147 25 206 0 52 30 190 47 218 3 5 35 -23 72 -62 61
-66 70 -73 121 -82 99 -18 95 -20 98 33 3 40 -4 61 -43 135 l-46 87 43 20 c34
17 43 26 43 46 l0 25 -102 0 c-116 1 -129 7 -143 71 -5 21 -6 75 -3 121 5 74
4 86 -14 106 -23 25 -83 194 -83 232 0 14 -5 25 -11 25 -17 0 -4 -74 26 -145
13 -33 25 -70 25 -82 0 -12 9 -28 19 -35 20 -14 24 -31 22 -85 -1 -22 -6 -33
-16 -33 -16 0 -30 42 -22 64 4 10 1 13 -8 10 -21 -9 -42 -82 -70 -247 -30
-184 -44 -325 -35 -351 6 -16 8 -15 13 11 3 17 9 73 13 125 4 51 10 102 14
113 7 18 9 17 39 -12 38 -39 39 -62 6 -166 -14 -43 -25 -102 -25 -131 0 -29
-3 -68 -7 -86 -8 -41 -78 -116 -116 -125 -44 -11 -107 13 -151 56 l-39 40 8
242 c4 133 11 393 15 577 8 358 12 390 63 453 28 36 114 66 186 67 47 0 62 -5
120 -44z m194 -88 c50 -58 49 -58 -18 -62 -8 -1 -30 24 -49 54 -30 48 -33 56
-18 61 24 9 43 -3 85 -53z m74 10 c50 -49 53 -58 17 -58 -24 0 -73 42 -95 83
-20 35 34 18 78 -25z m85 -5 c53 -52 58 -63 28 -63 -20 0 -120 84 -120 101 0
25 49 4 92 -38z m117 -78 c16 -8 34 -28 40 -46 14 -40 14 -39 -3 -39 -15 0
-58 51 -69 83 -8 21 -4 21 32 2z m-60 -9 c9 -11 -6 -14 -86 -19 -60 -3 -121
-14 -157 -26 -69 -24 -87 -26 -80 -8 7 18 55 45 100 56 64 15 210 13 223 -3z
m-367 -36 c29 -23 53 -73 44 -95 -16 -44 -96 23 -96 81 0 40 15 44 52 14z
m359 -86 c24 -53 46 -101 47 -105 2 -5 -10 -9 -27 -9 -25 0 -34 6 -43 28 -6
15 -24 56 -39 91 -35 77 -36 91 -5 91 20 0 30 -14 67 -96z m-98 44 c13 -24 34
-70 46 -102 24 -65 20 -76 -30 -76 -23 0 -31 11 -72 98 -26 53 -47 100 -47
104 0 6 27 14 62 17 9 0 26 -16 41 -41z m144 20 c11 -13 43 -60 71 -105 l51
-83 -30 0 c-17 0 -39 5 -49 10 -23 12 -65 81 -91 150 l-19 50 23 0 c13 0 33
-10 44 -22z m94 -65 c8 -9 47 -41 87 -70 72 -54 82 -69 60 -91 -8 -8 -18 -6
-39 11 -15 12 -39 30 -52 39 -24 17 -87 103 -87 120 0 14 17 9 31 -9z m36
-155 c24 -19 -6 -29 -72 -22 -74 7 -184 -10 -236 -36 -52 -27 -73 -27 -59 0
13 24 77 58 133 70 54 12 216 3 234 -12z m93 -68 c0 -11 -4 -20 -10 -20 -11 0
-50 72 -50 92 1 21 60 -51 60 -72z m86 14 c64 -44 68 -58 24 -107 -23 -27 -30
-44 -30 -77 0 -59 -19 -48 -55 34 -24 56 -27 70 -17 86 7 11 12 36 12 55 0 43
13 44 66 9z m-582 -15 c29 -34 30 -37 16 -73 -11 -29 -50 -36 -69 -12 -17 20
-32 78 -25 98 9 28 49 22 78 -13z m357 -74 c80 -205 118 -345 164 -608 14 -78
25 -143 25 -144 0 -14 72 3 120 27 33 17 61 30 64 30 3 0 10 -25 17 -57 l13
-56 -44 -40 c-41 -36 -198 -119 -246 -130 -21 -4 -22 0 -28 92 -25 352 -64
569 -152 843 -43 137 -44 150 -3 146 29 -3 33 -9 70 -103z m76 90 c12 -9 31
-44 44 -82 12 -38 51 -131 86 -208 102 -221 157 -375 140 -391 -10 -11 -89 38
-136 84 -45 44 -50 55 -80 162 -37 136 -87 289 -124 383 l-27 67 38 0 c21 0
47 -7 59 -15z m-169 -92 c91 -280 162 -672 162 -895 l0 -97 -67 -21 c-179 -55
-531 -104 -609 -84 -36 9 -38 11 -50 69 -17 82 -17 85 9 85 21 1 20 2 -5 16
-33 17 -35 33 -10 64 18 22 18 22 76 5 74 -22 139 -14 223 26 74 35 173 124
211 188 l27 46 3 -85 c2 -47 0 -105 -3 -129 -14 -93 -95 -130 -310 -140 l-130
-7 70 -8 c45 -6 101 -5 155 2 227 30 248 61 237 352 -7 169 -29 394 -47 474
-5 25 -21 85 -35 132 -14 47 -25 88 -25 89 0 5 32 13 60 14 24 1 28 -6 58 -96z
m510 -17 c17 -9 44 -16 59 -16 15 0 34 -4 42 -9 23 -15 -5 -41 -45 -41 -18 0
-36 -4 -39 -10 -3 -5 3 -31 14 -56 23 -52 27 -80 10 -86 -8 -3 -6 -19 5 -52
11 -33 13 -53 7 -59 -10 -10 -21 8 -38 67 -5 17 -15 32 -23 34 -10 4 -11 0 -5
-14 51 -121 17 -137 -49 -24 -19 32 -55 86 -80 121 -50 68 -53 93 -18 133 40
45 89 49 160 12z m-961 -18 c34 -73 35 -92 9 -117 -22 -21 -33 -41 -50 -94 -5
-15 -8 -16 -26 -5 -17 11 -20 20 -15 58 16 117 39 200 56 200 4 0 16 -19 26
-42z m67 -143 c16 -11 53 -16 115 -18 100 -2 109 -11 43 -41 -49 -23 -49 -25
9 -132 27 -49 39 -83 39 -111 0 -37 -2 -41 -20 -36 -12 3 -32 26 -45 54 -14
26 -29 50 -35 54 -15 9 -12 -1 11 -46 11 -23 18 -43 15 -46 -9 -9 -52 6 -79
28 -37 29 -147 185 -147 208 0 41 36 101 61 101 5 0 20 -7 33 -15z m697 -360
c21 -19 60 -45 87 -59 47 -24 72 -60 54 -78 -20 -19 -115 -59 -135 -56 -18 2
-24 13 -33 58 -16 80 -25 170 -18 170 4 0 24 -16 45 -35z m-1086 -239 c24 -19
54 -38 66 -41 37 -12 89 5 130 42 43 39 55 38 45 -2 -10 -38 -48 -72 -92 -83
-22 -5 -61 -15 -89 -22 -96 -24 -94 -24 -105 5 -10 26 -14 135 -5 135 3 0 25
-15 50 -34z m179 -175 c33 -145 20 -174 -101 -218 -77 -28 -225 -43 -237 -24
-12 19 21 114 62 177 53 82 138 131 229 133 31 1 32 0 47 -68z m916 -31 c0
-19 -7 -34 -20 -42 -31 -19 -24 -41 19 -59 42 -18 89 -73 93 -109 4 -30 -86
-106 -137 -116 -55 -10 -78 1 -121 60 -37 53 -54 67 -54 47 0 -5 16 -28 36
-52 26 -32 32 -44 22 -50 -26 -17 -48 -9 -54 19 -9 38 -32 81 -65 123 -55 70
-35 116 61 138 25 6 81 24 125 40 44 17 83 30 88 31 4 0 7 -13 7 -30z m-727
-136 c43 -8 48 -21 12 -30 -30 -7 -31 -15 -5 -39 12 -11 20 -31 20 -52 0 -28
-6 -37 -33 -53 -19 -11 -46 -42 -61 -69 -14 -27 -33 -52 -42 -55 -38 -15 -82
-5 -130 29 -27 19 -55 35 -62 35 -18 0 -9 27 37 115 l36 70 60 -2 c57 -2 58 3
3 21 -11 3 -15 11 -12 21 5 11 22 15 73 15 36 0 83 -3 104 -6z m-7 -270 c-7
-20 -56 -18 -56 1 0 9 12 28 28 43 l27 27 3 -28 c2 -16 1 -35 -2 -43z"/>
<path d="M972 2970 c-59 -25 -24 -77 70 -105 67 -20 91 -19 118 3 17 14 21 24
15 41 -13 42 -150 83 -203 61z"/>
<path d="M1267 2912 c-10 -2 -17 -11 -15 -20 4 -21 28 -28 28 -7 0 29 59 1 60
-29 0 -4 -7 -6 -15 -2 -27 10 -16 -10 24 -42 22 -18 42 -32 45 -32 11 0 6 41
-9 70 -20 39 -80 71 -118 62z"/>
<path d="M1131 2668 c3 -102 8 -129 25 -158 25 -44 55 -49 95 -16 16 14 48 30
71 36 35 10 49 8 99 -10 59 -22 79 -21 79 7 0 13 -3 13 -15 3 -12 -10 -21 -10
-47 1 -67 28 -268 209 -268 241 0 12 -8 18 -21 18 -20 0 -21 -4 -18 -122z
m163 -54 c27 -24 46 -47 43 -50 -12 -13 -86 40 -96 68 -6 15 -7 28 -3 28 4 -1
29 -21 56 -46z"/>
<path d="M1555 2671 c-7 -18 40 -61 66 -61 23 0 30 24 13 48 -18 26 -71 34
-79 13z m45 -16 c0 -8 -4 -15 -10 -15 -5 0 -10 7 -10 15 0 8 5 15 10 15 6 0
10 -7 10 -15z"/>
<path d="M1470 2620 c20 -16 37 -24 39 -18 4 13 -38 48 -59 48 -9 -1 0 -13 20
-30z"/>
<path d="M1558 2519 c-22 -12 -24 -57 -3 -65 8 -4 27 1 41 11 48 31 12 84 -38
54z"/>
<path d="M1097 2470 c6 -22 40 -50 61 -50 7 0 -3 16 -22 35 -41 40 -46 43 -39
15z"/>
<path d="M1023 803 c9 -2 23 -2 30 0 6 3 -1 5 -18 5 -16 0 -22 -2 -12 -5z"/>
</g>
</svg>
